<?xml version="1.0" encoding="UTF-8"?>
<svg width="141px" height="89px" viewBox="0 0 141 89" version="1.1" xmlns="http://www.w3.org/2000/svg" xmlns:xlink="http://www.w3.org/1999/xlink">
    <!-- Generator: Sketch 40 (33762) - http://www.bohemiancoding.com/sketch -->
    <title>Logo w/ plate</title>
    <desc>Created with Sketch.</desc>
    <defs>
        <polygon id="path-1" points="0.109236262 88.2350948 119.455512 88.2350948 119.455512 0.186659 0.109236262 0.186659 0.109236262 88.2350948"></polygon>
    </defs>
    <g id="Desktop" stroke="none" stroke-width="1" fill="none" fill-rule="evenodd">
        <g id="Logo-w/-plate">
            <g id="Group-3" transform="translate(20.673312, 0.017117)">
                <mask id="mask-2" fill="white">
                    <use xlink:href="#path-1"></use>
                </mask>
                <g id="Clip-2"></g>
                <path d="M0.515338582,12.6737589 C6.08505624,9.11338113 12.1501146,6.6383154 18.4452404,4.71874359 C31.5379966,0.726360267 44.9291854,-0.548871196 58.5602665,0.580456507 C70.6875177,1.58507318 82.3441952,4.38964502 93.2762833,9.81702035 C101.055998,13.6793945 107.996091,18.6403261 113.165237,25.7384625 C118.272773,32.7522355 120.462302,40.5360788 119.020492,49.1715029 C117.913344,55.8023804 114.711642,61.4037806 110.192579,66.3035794 C104.706168,72.2520104 98.0211154,76.5097104 90.6943709,79.8259643 C82.1687791,83.6848742 73.2121179,86.018723 63.9439244,87.2597201 C55.9333231,88.3321942 47.9049142,88.5270043 39.8627913,87.8107309 C27.2950553,86.6913882 15.2496786,83.6691834 4.01281261,77.8034855 C3.71499411,77.648208 3.44010047,77.4495262 3.15456314,77.271222 C2.85244623,77.0197622 2.91528491,76.7607627 3.11628681,76.4764949 C3.33571048,76.1661437 3.46302533,75.8101467 3.46445813,75.4303078 C3.46609562,75.0258121 3.30275599,74.7670163 2.83320572,74.9045652 C2.73618444,74.9328901 2.64857872,74.9901512 2.55442304,75.0290725 C2.42055823,75.0844996 2.18005189,75.0724768 2.18005189,75.0074722 C2.17820971,73.8708086 0.747452794,74.3655772 0.522093228,73.5673858 C0.398258045,73.1284519 0.108422309,72.6942048 0.271557253,72.2008626 C0.319044464,72.0572004 0.473991959,72.0370266 0.612359866,72.0188905 C1.10974746,72.067593 1.50254039,72.3463588 1.90495356,72.600264 C7.67853873,76.2443938 13.9063227,78.8722916 20.4343814,80.8364904 C25.8685968,82.4715907 31.4172317,83.5410082 37.045285,84.2364963 C42.7771141,84.9448224 48.5423072,85.1412627 54.2933769,84.8586251 C63.8673717,84.3881058 73.2626755,82.7968175 82.3274109,79.5738931 C89.6031885,76.9869542 96.4235392,73.5545479 102.448888,68.676757 C106.568813,65.3415519 110.030672,61.4359773 112.498369,56.737917 C114.152439,53.5885558 115.182216,50.2392902 115.509304,46.6567008 C116.201963,39.0674637 113.779091,32.4838622 109.187569,26.5763902 C104.983518,21.1675585 99.6205338,17.1356426 93.6463561,13.8668686 C84.0107507,8.59456692 73.6257889,5.74068123 62.7774174,4.3007986 C56.565599,3.47632009 50.3298322,3.33163899 44.1034811,3.59023099 C37.7006904,3.85595516 31.3588961,4.78435952 25.1098248,6.31308858 C19.1561157,7.76927331 13.4138476,9.77280091 7.90307955,12.4304501 C6.12476537,13.2881442 4.39127749,14.2422243 2.71817205,15.2963586 C2.34257277,15.5329428 1.96758755,15.7707496 1.51113721,15.8192483 C0.776518242,15.6916844 0.528847875,15.0245212 0.213221671,14.5158958 C-0.0862343188,14.0331499 0.312903877,13.6359901 0.753184009,13.3710811 C1.18977979,13.1084135 1.54184015,13.1970562 1.7510295,13.6596282 C1.97536563,14.156027 2.27727786,14.0847053 2.64121002,13.8387474 C2.97525798,13.613371 3.27717021,13.2480002 3.69882389,13.2751025 C4.55031871,13.3297145 4.18352094,12.6605135 4.18904747,12.3797098 C4.19928178,11.8488728 3.73505336,12.0237128 3.4276146,12.1060384 C2.76095148,12.2845464 2.07955094,12.385008 1.53815579,12.9264414 C1.19837661,13.2663401 0.68809378,13.4279346 0.515338582,12.6737589" id="Fill-1" fill="#047D40" mask="url(#mask-2)"></path>
            </g>
            <g id="Group-6" transform="translate(0.000000, 11.836137)" fill="#037E40">
                <path d="M21.1886502,0.854739273 C21.9699377,1.79374001 22.1873145,0.628343914 22.6114244,0.418046875 C22.997872,0.226089695 24.8842606,-0.152526486 25.2320225,0.116254322 C25.4160354,0.25849011 25.407848,0.40602408 25.2498302,0.524825605 C24.9008401,0.787493127 25.0895609,1.00920163 25.2367303,1.28531839 C25.3192188,1.4401883 25.3044814,1.76989819 24.9919255,1.67004785 C24.1654024,1.40656522 23.7550065,2.08513997 23.1933474,2.40466105 C22.7389439,2.66304928 22.3823805,2.86764058 22.2957982,2.09390235 C22.2712358,1.87463916 22.158249,1.5164006 21.9091459,1.57569947 C21.6047774,1.64783625 21.3004089,1.87830713 21.0865118,2.11957815 C20.903727,2.32559589 20.8996333,2.68403823 21.1988846,2.82525513 C21.680716,3.05307692 21.6946347,3.62059364 22.0802636,3.90078592 C21.9380066,4.60666668 21.2723669,4.77906134 20.7886933,5.11223543 C16.0064037,8.40546261 11.7915043,12.2692631 8.58816444,17.142571 C6.29977212,20.6238836 4.7247114,24.4096378 4.13153063,28.5348833 C3.26754995,34.5424094 4.40192117,40.2075916 7.34510482,45.5200371 C10.4579734,51.1391659 14.9144025,55.5064974 20.1248958,59.1803785 C20.5514619,59.481356 21.1106648,59.6839095 21.2128032,60.3070571 C20.9297221,60.9130875 21.610918,61.3776973 21.4682517,61.9680369 C21.4655907,61.9784295 21.6647505,62.0829667 21.7128517,62.0530116 C23.1014433,61.1857401 22.6044651,62.6531325 23.0054454,63.1468822 C23.3505465,62.6474268 23.7986047,62.4067671 24.237452,62.9068339 C24.7651332,63.5081775 24.3197359,64.1406988 24.0960138,64.6992493 C23.9971503,64.9456148 23.6506165,65.0939638 23.8278748,65.4522024 C23.4244382,65.3702844 23.1051276,65.1341078 22.7892967,64.8914103 C22.6261618,64.8602325 22.879154,64.1600575 22.3934335,64.6474902 C22.2219065,64.6238521 22.0688011,64.5694439 21.9832423,64.402755 C21.8909288,64.1633179 21.9083271,63.9061524 21.8643196,63.6461339 C21.6231992,63.6932062 21.5927009,63.9915346 21.3679554,64.0414598 C13.2722047,59.2484398 6.43322756,53.1769279 2.66331613,44.3984529 C-2.18774809,33.1025268 -0.242205244,22.5650557 7.11810777,12.9276641 C10.9353017,7.92964518 15.7265976,3.98759458 21.1886502,0.854739273" id="Fill-4"></path>
            </g>
            <path d="M21.3679349,75.8776985 C21.382877,75.4277606 21.7330952,75.1907689 22.0153576,74.710876 C22.2304828,75.3470653 22.1334615,75.7933351 21.9832218,76.2389937 C21.7265452,76.2055744 21.5259527,76.0776029 21.3679349,75.8776985" id="Fill-7" fill="#047D40"></path>
            <path d="M22.3934949,76.4836882 C22.4383212,76.0553506 22.6346153,75.7710828 23.1835839,75.6710287 C23.0294551,76.0836755 22.9093043,76.4056419 22.7891535,76.7276083 C22.6573355,76.6463016 22.5253129,76.5649949 22.3934949,76.4836882" id="Fill-9" fill="#047D40"></path>
            <path d="M21.2128237,72.1432958 C18.1963624,69.9873436 15.2621849,67.7348015 12.7058583,65.0315064 C8.3470645,60.4222926 5.13328563,55.1885046 4.02020178,48.8702197 C2.60213541,40.8196334 4.7808159,33.6373374 9.56433366,27.1442126 C12.7658314,22.7984813 16.7864834,19.31778 21.2641999,16.3334776 C21.5444154,16.1468186 21.8086654,15.9363178 22.080284,15.7368209 C29.1153506,11.4230825 36.6695015,8.34932227 44.6674122,6.31746977 C54.5842565,3.79798083 64.6671014,2.85307058 74.8686643,3.31482745 C87.266306,3.87623089 99.244955,6.34844375 110.533811,11.6462174 C117.794442,15.0535593 124.346654,19.4424911 129.490829,25.6857863 C133.950942,31.0986935 136.618413,37.2221683 136.595693,44.3196934 C136.574201,51.1091089 134.067613,57.0171922 129.881575,62.2750258 C125.038698,68.3579491 118.830154,72.7165183 111.920561,76.1309923 C102.263668,80.9034309 91.9882132,83.5054492 81.2970408,84.6433355 C76.2318747,85.1825274 71.156065,85.3767261 66.0800506,85.1570553 C51.1778679,84.5125112 36.9460326,81.3289156 23.9197994,73.7669846 C23.0097643,73.2387967 22.114876,72.6851368 21.2128237,72.1432958" id="Fill-11" fill="#FEFEFE"></path>
            <path d="M67.8570343,83.9386774 C63.5936243,83.8730615 59.3472033,83.5451856 55.1323039,82.9261135 C49.1638575,82.0494683 43.3018478,80.6974132 37.6173012,78.6590399 C28.7392396,75.4754443 20.5659128,71.1176902 13.9574124,64.2520625 C9.80228143,59.9352674 6.77415298,54.9645546 5.62831933,49.0146971 C4.34555058,42.352438 5.69013458,36.1503055 9.17655555,30.3877184 C12.7767821,24.4366382 17.8847275,20.0008379 23.7342513,16.3644516 C31.0837159,11.7955854 39.0984109,8.85692878 47.5142909,6.94041362 C53.8061417,5.50766315 60.1819138,4.73025694 66.631373,4.5354469 C68.9465792,4.65180311 71.2617854,4.65180311 73.5771964,4.5354469 C78.655667,4.69357723 83.6974988,5.19934976 88.6949137,6.1228635 C98.1340203,7.86739155 107.143695,10.8137916 115.424687,15.7329491 C121.706917,19.4644989 127.182684,24.0804374 131.02792,30.388941 C134.008357,35.2787547 135.442593,40.585087 134.962399,46.3063076 C134.483433,52.0118374 132.189515,57.0194338 128.649466,61.4833552 C123.839339,67.5491614 117.648194,71.8494506 110.759478,75.2292826 C102.849378,79.1104041 94.4723879,81.4738005 85.7715846,82.7950854 C81.3182258,83.4712148 76.8456265,83.830676 72.3474413,83.9386774 C70.8505708,83.8231363 69.3539049,83.8233401 67.8570343,83.9386774" id="Fill-13" fill="#E22E25"></path>
            <path d="M73.5771349,4.53550803 C72.142489,5.60892487 70.683076,4.89669668 69.2365582,4.97550147 C68.3717588,5.02266495 67.4803502,5.57608954 66.6313116,4.53550803 L73.5771349,4.53550803" id="Fill-15" fill="#E02025"></path>
            <path d="M70.9475716,6.39048278 C82.5768211,6.47362347 94.6371399,8.42702213 106.115536,13.3062395 C113.72311,16.5401678 120.619808,20.8359739 125.996916,27.2261917 C130.385389,32.4410285 133.014584,38.3595045 132.693636,45.2999181 C132.409532,51.4423441 129.849726,56.6867284 125.923024,61.3128557 C120.542028,67.6525371 113.669891,71.9134974 106.10264,75.1474257 C98.418309,78.4312792 90.3759814,80.3600209 82.0800476,81.3393694 C74.5301951,82.2304827 66.9780911,82.3024157 59.4286479,81.4950544 C47.6278713,80.2332721 36.3605071,77.1941539 26.0875087,71.0867774 C20.1344137,67.5473885 14.9314938,63.1641625 11.2964706,57.1739573 C5.55154152,47.706515 6.30765254,37.2866228 13.3754689,28.2424237 C17.4442223,23.0357379 22.6168486,19.1558391 28.4002587,16.0431576 C37.1614444,11.3275726 46.5708715,8.66421763 56.3997008,7.32561177 C60.9674792,6.7036868 65.552656,6.41330572 70.9475716,6.39048278 L38.0039063,37.6549868" id="Fill-19" fill="#FEFEFE"></path>
            <path d="M77.2767162,56.6380055 C78.2495899,56.4061082 79.242523,56.4894526 80.2266545,56.4680561 C89.6377191,56.2638724 99.0199229,55.6364455 108.346247,54.3646782 C113.061809,53.7215605 117.781874,53.0162911 122.29275,51.384655 C122.935465,51.1521464 123.556074,50.8778636 124.102381,50.4617526 C124.71296,49.9965316 124.711937,49.5258085 124.0901,49.0691461 C123.368376,48.539328 122.554544,48.148689 121.699774,47.9579545 C120.745527,47.7452121 120.256122,47.2182468 120.009884,46.3265222 C119.876224,45.8417386 119.636127,45.386095 119.351818,44.6922371 C122.131867,45.5621577 124.818578,46.1899921 126.811404,48.2603583 C127.674566,49.1571774 127.643863,50.2369875 126.877108,51.2200039 C126.496187,51.7084554 126.045263,52.1594122 125.483195,52.3939586 C124.421692,52.8367642 123.99881,53.7152434 123.670493,54.7002976 C123.30697,55.7921305 122.895346,56.8694953 122.5701,57.9723321 C121.959316,60.0424945 120.64523,61.5104982 118.810423,62.5945876 C115.02168,64.8330692 110.872485,66.1392746 106.650422,67.227032 C99.2467153,69.1343772 91.7034127,70.1813793 84.084581,70.7656057 C77.0392801,71.3058164 69.9896808,71.4875848 62.9331222,71.1324029 C51.272351,70.5455274 39.7264088,69.2325973 28.606214,65.4225937 C26.2871187,64.6278665 24.0472371,63.6472955 21.9702856,62.3194897 C20.3174441,61.2629101 19.1939213,59.846258 18.7061539,57.9393203 C18.5219363,57.2185639 18.2740613,56.5134982 18.1027389,55.7902965 C17.7435145,54.2735902 17.278672,52.8665156 15.579162,52.2884025 C15.2172767,52.1653217 14.916388,51.8166606 14.6304413,51.5293361 C13.5101934,50.4034726 13.5075325,49.1783701 14.6046508,48.0353894 C15.2256689,47.3881962 15.9846455,46.9349979 16.7798516,46.538857 C18.8922138,45.4863529 21.1587046,44.882564 23.4254002,44.2775525 C23.9862406,44.127777 24.2828309,44.2422992 24.1913362,44.8817489 C24.1819206,44.9483837 24.1896987,45.0174639 24.1903128,45.0853214 C24.2054595,46.6556208 24.2058689,46.6570472 22.6594643,47.0454446 C20.9439888,47.4764313 19.2229867,47.8962103 17.6522244,48.7418815 C17.2125584,48.9784657 16.647829,49.2126045 16.6877428,49.8121141 C16.7219254,50.3256301 17.2135818,50.5675125 17.6389198,50.7912587 C19.8349986,51.9458547 22.2410856,52.4557028 24.6344819,52.9563809 C29.9376981,54.0657385 35.3078466,54.7237319 40.6992826,55.2582368 C48.0305301,55.9849028 55.3779479,56.3584245 62.7405125,56.5043283 C63.1449725,56.5122756 63.5479997,56.5917483 63.951641,56.6380055 C64.1067932,56.8246645 64.3225325,56.7700525 64.518622,56.7702562 C68.5822582,56.7729053 72.6458944,56.7729053 76.7097353,56.7702562 C76.9058247,56.7700525 77.1213593,56.8240532 77.2767162,56.6380055" id="Fill-21" fill="#E22F25"></path>
            <path d="M28.9484699,27.8345452 C28.9472418,26.8342078 28.8164472,25.9066186 27.5801423,25.6737024 C27.2205085,25.6058449 27.22931,25.3227998 27.2180523,25.0417924 C27.2051571,24.7192147 27.3760701,24.6338324 27.6579231,24.6411684 C32.868007,24.7754569 38.103472,24.2334122 43.2857185,24.9268626 C47.2308414,25.4548467 49.82176,28.2209049 50.0493711,31.6042011 C50.2800525,35.0339584 48.8988297,37.6551316 46.0710891,39.5616618 C43.5534482,41.2593213 40.6751501,42.0980641 37.8158878,42.9796 C36.8098548,43.2899511 35.473663,43.2991211 34.8817103,43.9670995 C34.2795234,44.6464893 34.7457987,45.9773517 34.7058848,47.0219085 C34.6891006,47.4626764 34.7032239,47.904667 34.7042473,48.3460462 C34.7058848,49.2053705 34.9912175,49.8971907 35.908826,50.1101368 C36.3808325,50.2197684 36.3814465,50.5132061 36.3597498,50.8671654 C36.3335499,51.295503 36.0046191,51.2021735 35.752855,51.2027848 C33.1271398,51.208083 30.5012198,51.2066565 27.8752999,51.2052301 C27.5746157,51.2050263 27.2331991,51.2712536 27.221532,50.7948248 C27.2133445,50.4626696 27.2516208,50.2175269 27.6626308,50.1288842 C28.7609773,49.8918925 28.9462183,49.0394966 28.9476511,48.103145 C28.9531777,44.6742029 28.9499027,41.245057 28.9499027,37.8161148 C28.9499027,34.488857 28.9523589,31.161803 28.9484699,27.8345452 Z" id="Fill-23" fill="#020302"></path>
            <path d="M82.706408,33.7065194 C81.6479753,33.7250631 80.860752,34.1900804 80.7262731,35.3514009 C80.6560658,35.9592653 80.2669572,35.9663975 79.7847164,35.9733259 C79.1442531,35.9824958 79.2965397,35.5513054 79.2942881,35.2107954 C79.2854866,33.8872689 79.3137333,32.5631312 79.2791413,31.2402161 C79.265632,30.7197717 79.3964266,30.5445241 79.9509216,30.5469695 C84.8257294,30.568366 89.700742,30.5634753 94.5757545,30.5526752 C95.027497,30.5516563 95.2299317,30.6364272 95.2510144,31.1603358 C95.2999344,32.3750458 95.0831717,33.4020778 94.2875562,34.4392987 C90.9810545,38.7497766 87.7848786,43.1440066 84.549403,47.5084853 C84.4317084,47.6672269 84.3260903,47.834731 84.0810809,48.194396 C84.8644151,48.194396 85.4852286,48.2009168 86.1058373,48.1931733 C87.8434189,48.1713693 89.5818192,48.1681088 91.3183774,48.1110515 C92.9986469,48.0556244 93.8560776,47.4198426 94.2484611,45.8220335 C94.4156898,45.1410134 94.8000906,45.1815649 95.2880626,45.1815649 C95.9520648,45.1817686 95.716471,45.6759259 95.7205647,45.9864808 C95.741238,47.5135797 95.71381,49.0412899 95.7387818,50.5681849 C95.7475833,51.0941313 95.6671416,51.3533346 95.0299533,51.3504818 C89.6438392,51.3254173 84.2573157,51.3276588 78.8712016,51.3478327 C78.2714709,51.3498704 78.1719934,51.1295884 78.1214359,50.5822455 C77.9961679,49.2285602 78.3873233,48.1416179 79.2302213,47.0461171 C82.522395,42.7670207 85.7214365,38.4172139 88.9528184,34.092064 C89.0103352,34.0152404 89.0412428,33.9184467 89.1515687,33.6955155 C86.917623,33.6955155 84.8114014,33.6694322 82.706408,33.7065194 Z" id="Fill-25" fill="#020303"></path>
            <path d="M70.3164829,33.6903804 C68.0901105,33.6903804 66.0133638,33.6734669 63.9372311,33.6973088 C62.8309019,33.7099429 62.0090866,34.177813 61.8439048,35.361549 C61.7569131,35.986123 61.3829514,35.9716549 60.908898,35.9704323 C60.2766222,35.9690058 60.4268619,35.532721 60.4244056,35.192211 C60.4145807,33.8680732 60.4475352,32.5429166 60.4074167,31.2197977 C60.3906324,30.6673604 60.5869265,30.5477438 61.1027359,30.5495778 C65.946022,30.5660837 70.7893082,30.5695479 75.6325943,30.5463174 C76.2298688,30.5434645 76.3307791,30.7423501 76.3733539,31.2956025 C76.469147,32.5453619 76.1029633,33.545903 75.3329336,34.5572443 C72.0616379,38.8544768 68.8707839,43.2122309 65.6568003,47.5524602 C65.5460651,47.7020319 65.3321679,47.8273543 65.4607109,48.1910948 C67.9955455,48.1621586 70.5733642,48.3367948 73.1382876,48.0358173 C74.375616,47.8907287 75.2068469,47.0976317 75.3970004,45.8631555 C75.5177653,45.079636 75.9840406,45.1684824 76.4902297,45.1886563 C77.1540272,45.2151472 76.8607118,45.7353878 76.866443,46.0304558 C76.8969413,47.5579621 76.8549806,49.086895 76.8936663,50.6139938 C76.9084037,51.2035184 76.7139518,51.350441 76.1398068,51.3481995 C70.7850098,51.3278219 65.430008,51.3274143 60.0752109,51.3479957 C59.4672927,51.350441 59.2906485,51.2008693 59.2415238,50.562846 C59.1367244,49.2026399 59.5377048,48.1301657 60.3822403,47.0358875 C63.6617234,42.7871537 66.8413197,38.4618001 70.0557126,34.1633449 C70.13247,34.0606417 70.1815947,33.9375609 70.3164829,33.6903804" id="Fill-27" fill="#020303"></path>
            <path d="M114.775627,51.3358506 C113.719241,51.3358506 112.662855,51.3380922 111.606265,51.3342204 C111.340377,51.3332016 111.037442,51.3829229 111.027617,50.9623289 C111.020043,50.6350643 111.030892,50.3927744 111.472195,50.3314377 C112.243658,50.2244552 112.360124,49.7741098 112.082365,49.0814745 C111.503308,47.6377202 110.955772,46.1803128 110.441395,44.7125128 C110.260657,44.1967552 110.040415,43.9632277 109.441503,43.9776958 C107.568214,44.0233417 105.693288,43.9992961 103.818976,43.9907375 C103.419429,43.9889035 103.153132,44.0206926 102.999822,44.510163 C102.525155,46.0254429 101.972706,47.5168809 101.439499,49.0138208 C101.219461,49.6312627 101.336132,50.1089141 102.009345,50.284773 C102.429771,50.3944046 102.568548,50.6036828 102.506323,51.0018614 C102.432432,51.4750298 102.057037,51.3283109 101.783986,51.3303487 C100.182316,51.3419639 98.5806457,51.3431866 96.9789758,51.3299411 C96.6744026,51.3274958 96.2568427,51.4954074 96.1714885,50.9696648 C96.1012811,50.5374555 96.3385125,50.4237484 96.7175914,50.2949618 C97.4384964,50.0500228 97.6491186,49.3419005 97.893514,48.7156963 C100.14363,42.9510713 102.393541,37.1862426 104.60579,31.4073533 C104.849162,30.7717754 105.114231,30.4893415 105.829405,30.5413045 C106.812308,30.6128299 107.807288,30.6028449 108.792034,30.5439536 C109.445392,30.5048285 109.743006,30.7387636 109.980033,31.3382732 C112.292373,37.1884841 114.635007,43.0268761 116.971501,48.8675095 C117.233295,49.5220387 117.414647,50.240146 118.290909,50.3848271 C118.607968,50.4371976 118.554954,50.7393977 118.542877,50.969461 C118.522204,51.3653982 118.21845,51.3352393 117.944989,51.3354431 C116.888398,51.336462 115.832013,51.3358506 114.775627,51.3358506" id="Fill-29" fill="#020303"></path>
            <path d="M54.4778401,30.5591553 C55.4322921,30.5591553 56.3871535,30.5442796 57.3407867,30.5691403 C57.593779,30.5758649 57.9900515,30.360881 58.054323,30.8743971 C58.099354,31.2332469 57.9818641,31.4311136 57.6079023,31.525462 C56.9791061,31.6839999 56.7703262,32.1649117 56.7701215,32.7625873 C56.7680746,38.1920004 56.7662324,43.6214135 56.7680746,49.0508266 C56.768484,49.6819215 56.9727609,50.2158151 57.6727878,50.3346167 C58.1464318,50.4149045 58.050434,50.7291274 58.0457262,51.0160443 C58.0395856,51.3671507 57.767967,51.3353616 57.5307356,51.3355654 C55.4855105,51.3361767 53.4402855,51.3363805 51.3950604,51.3345465 C51.156601,51.3343427 50.8900994,51.3520712 50.8593965,51.0168594 C50.8311498,50.706712 50.8200967,50.4328368 51.2536222,50.3325789 C51.9904927,50.1620182 52.1239482,49.5871656 52.1229248,48.9193909 C52.1145326,43.5914584 52.1141232,38.2635259 52.1227201,32.9357971 C52.1239482,32.2680225 51.9952005,31.7005058 51.2620144,31.5095675 C50.8657418,31.4062529 50.801675,31.1596837 50.8579637,30.8297701 C50.9298086,30.4093798 51.279208,30.5715856 51.5123457,30.5671025 C52.5005709,30.5483551 53.4894102,30.5591553 54.4778401,30.5591553" id="Fill-31" fill="#020303"></path>
            <path d="M71.9634909,18.9800617 C72.6809162,17.9937849 73.3350934,16.9363902 74.5826562,16.5135546 C76.0527128,16.015118 76.9201732,16.6417298 76.8878328,18.184927 C76.8493517,20.0293054 76.2066369,21.7717957 75.9440244,23.5796981 C75.8447516,24.2629597 75.7659474,24.9441836 76.071544,25.5726294 C76.2999738,26.0423335 76.1564888,26.250389 75.7252148,26.3916059 C75.0311238,26.6188164 74.3094,26.8026225 73.6728258,26.3217107 C73.0759607,25.8709577 73.1437118,25.1874924 73.2630439,24.5392803 C73.5631139,22.9084593 73.8904073,21.282529 74.1724649,19.6486515 C74.2308005,19.3116056 74.4289368,18.8184672 74.0291845,18.6354762 C73.6177652,18.447187 73.3617027,18.9012004 73.1750288,19.1978985 C71.8408838,21.3179861 70.4342799,23.4142319 70.3253868,26.040092 C70.3178134,26.2196188 70.3190415,26.4180968 70.1323676,26.4588521 C69.4317266,26.6114805 68.6952654,26.7826525 68.0427257,26.3865115 C67.4712416,26.0396844 67.6235282,25.449141 67.7510478,24.910153 C68.4596716,21.9107711 69.1275628,18.9030343 69.5919959,15.8545424 C69.627816,15.6204035 69.6654783,15.3846345 69.6746892,15.1486616 C69.7168545,14.0604967 70.7781528,13.4269565 71.8214386,13.8475506 C72.5202375,14.1291693 72.4146194,14.7074861 72.3364292,15.2258928 C72.1599897,16.3980135 71.9207114,17.5607605 71.707019,18.7273793 C71.6615786,18.943382 71.6331272,19.1420638 71.9634909,18.9800617" id="Fill-33" fill="#020303"></path>
            <path d="M81.2795401,26.7182592 C78.669995,26.726614 77.5419691,25.4670733 77.8150206,22.8776891 C78.0506144,20.6438944 79.0406818,18.7982934 80.7674151,17.3865319 C81.96135,16.4106476 83.3362276,15.9162866 84.9348272,16.2724874 C85.8591903,16.4785051 86.2587379,17.0596748 86.277569,17.9289841 C86.315436,19.6898142 85.3986463,20.8651954 83.8733243,21.6234466 C83.2320423,21.9421526 82.5512558,22.2264204 81.8334211,22.2209184 C80.9628905,22.2141938 80.6372346,22.5125222 80.7098982,23.4111752 C80.8032352,24.5661787 81.1692142,25.1475522 82.0946008,25.1907528 C83.0572402,25.2357873 83.8608384,24.7952232 84.6597289,24.3202209 C84.9112883,24.1706491 85.1511806,23.6665068 85.4837957,23.9876581 C85.859395,24.3499722 85.6254386,24.834552 85.3726511,25.2001265 C84.9681911,25.7847604 84.3176982,26.0425373 83.6809192,26.2805479 C82.9104802,26.5680761 82.1052444,26.7094968 81.2795401,26.7182592" id="Fill-35" fill="#030403"></path>
            <path d="M64.3469107,13.8575967 C65.8505359,13.8522986 67.1543873,13.958466 68.4179156,13.6079709 C68.8960627,13.4753126 68.9241047,13.6605452 68.9105954,14.0379387 C68.8743659,15.0350156 68.0822301,15.8517506 67.0240022,15.6934165 C65.8053002,15.5110368 65.5070723,16.0166056 65.3347265,17.0962119 C64.9349743,19.5985836 64.3913276,22.0781325 63.9097008,24.5676663 C63.8712198,24.7663481 63.9002853,24.9854075 63.8300779,25.1692136 C63.6925287,25.5290824 64.2345379,26.0193679 63.6841366,26.2537106 C62.9597519,26.5622277 62.176827,26.7643737 61.3961536,26.4955929 C60.9102285,26.3282927 60.9523938,25.8647018 61.038362,25.4508323 C61.4096629,23.6637151 61.78997,21.8784318 62.1633177,20.0915183 C62.4124209,18.8992237 62.6281602,17.6993895 62.9102178,16.5150422 C63.0985292,15.7250018 62.7884295,15.5503656 62.0910635,15.7194999 C61.9919953,15.7433417 61.8863772,15.8150709 61.7981574,15.7965273 C61.3797787,15.7086997 60.8975379,16.6081679 60.557554,15.7661646 C60.2636246,15.0380723 60.8488226,14.0301952 61.6051383,13.8553552 C62.5870182,13.6285523 63.573606,13.9918853 64.3469107,13.8575967" id="Fill-37" fill="#030403"></path>
            <path d="M77.2767162,56.6380055 C77.0620003,57.4531303 76.7330695,57.2421191 76.4370932,57.2431902 C72.5552184,57.2533658 68.6735482,57.2533658 64.7918781,57.2431902 C64.4954924,57.2421191 64.166971,57.4509881 63.951641,56.6380055 L77.2767162,56.6380055" id="Fill-39" fill="#E02425"></path>
            <path d="M72.1360788,18.9800821 C72.1106981,19.224206 71.9826665,19.4200349 71.636925,19.532927 C71.4324694,19.2323571 71.4595421,18.9668367 71.782723,18.7273996 C71.9006023,18.8115592 72.0181995,18.8959225 72.1360788,18.9800821" id="Fill-41" fill="#ACABAB"></path>
            <path d="M61.2932374,61.5491749 C61.598834,61.2341369 61.8837572,60.8954609 62.2145302,60.6095629 C62.7880611,60.1137754 63.4410102,59.5947574 64.2157477,60.03308 C65.006246,60.480165 64.696351,61.2636845 64.5444738,61.9520405 C64.4724243,62.0753251 64.4441776,62.2104287 64.5231865,62.3318793 C64.5870486,62.4303032 64.6803855,62.4339712 64.7481367,62.3165961 C65.208476,61.5510089 65.796949,60.9007591 66.5436445,60.4053791 C67.0219963,60.0878958 67.5644148,59.9633886 68.0871835,60.2409317 C68.6515035,60.540279 68.5641025,61.12206 68.465239,61.6064361 C68.1880938,62.9646044 67.8391038,64.3078972 67.5443556,65.6628051 C67.4665748,66.0210437 67.3560442,66.4499926 67.4804935,66.7589173 C67.8161789,67.5927695 67.2921821,67.6966954 66.7258152,67.7460092 C66.0734802,67.8024552 65.5834613,67.5958261 65.5775254,66.8123067 C65.5681098,65.5723285 66.0165774,64.4209929 66.2585165,63.2297173 C66.3512394,62.772851 66.4691387,62.3208754 66.5735287,61.8758282 C66.4607465,61.8254955 66.3655674,61.7639551 66.35083,61.7792383 C64.9683791,63.2121925 63.7752629,64.8032771 63.4311853,66.7831667 C63.2670269,67.7278731 62.7727096,67.5426406 62.24728,67.5051457 C61.5431593,67.4546092 61.4655832,66.9910184 61.6221682,66.4071996 C61.9809832,65.0679824 62.3312014,63.7263199 62.6738462,62.3828234 C62.7377083,62.1323824 62.8445545,61.8688998 62.5878779,61.4548266 C61.2617157,63.0644548 59.944355,64.6062255 59.6577942,66.6871881 C59.5615917,67.3863442 59.1675706,67.3329548 58.7862401,67.3360115 C58.3297898,67.3396795 57.7671073,67.3217472 57.7650604,66.6335949 C57.7642417,66.3332288 57.8186882,66.0247116 57.8972877,65.7331079 C58.3795285,63.9411 59.0781227,62.2008512 59.1428036,60.3112345 C59.1638863,59.6915511 59.7161298,59.8425493 60.0704417,59.7932354 C60.5299623,59.7290459 60.9819096,59.8185037 61.0756559,60.3933563 C61.1131135,60.6236234 61.0766793,60.8657096 61.0738137,61.1024975 C61.0658309,61.2907867 60.7467251,61.6306854 61.2932374,61.5491749" id="Fill-43" fill="#FEFDFD"></path>
            <path d="M72.6999725,62.4842224 C73.2198756,61.8333612 73.62147,61.2629917 74.0938859,60.7580342 C74.5894313,60.2282161 75.1758574,59.7748141 75.9767947,60.0366665 C76.84753,60.3213418 76.993062,61.1107708 77.0088228,61.8500709 C77.0495554,63.7539519 76.4256717,65.4424415 75.0866142,66.8275084 C74.4021434,67.5356307 73.5047988,67.8791973 72.5759326,67.5845369 C71.7199347,67.3126995 71.650546,67.6723645 71.6785881,68.3103878 C71.702741,68.8613986 71.7623047,69.3787864 70.9724205,69.5083881 C69.87346,69.68873 69.4941764,69.3745071 69.6792127,68.2781911 C70.1002524,65.7811176 70.7779685,63.3270408 70.901599,60.7796345 C70.9378285,60.0332023 71.5887308,60.1907213 72.0558248,60.143649 C72.5693826,60.0918898 72.956649,60.2952585 72.9353617,60.862979 C72.9167352,61.3516343 72.7986312,61.8364179 72.6999725,62.4842224" id="Fill-45" fill="#FEFDFC"></path>
            <path d="M82.4654513,65.0611763 C81.953531,65.7615551 81.5539834,66.3804234 81.0801347,66.9363249 C80.5950283,67.5054718 79.9637759,67.8645254 79.1822838,67.614492 C78.4581038,67.3827985 78.2689737,66.7309184 78.2081819,66.0796497 C78.0084081,63.9446865 78.6378184,62.0734096 80.128753,60.5137066 C80.4859305,60.139981 80.9522058,59.8426715 81.4663777,59.8347243 C82.5235822,59.8180146 83.5791492,59.9072686 84.6396287,59.7829651 C85.0322169,59.7369117 85.3155027,59.8958571 85.1746786,60.4688758 C84.6734019,62.5080642 84.2390577,64.5592755 84.7409484,66.6793631 C84.879521,67.2648121 84.2941183,67.2953785 83.9529063,67.3874854 C83.3615677,67.5470421 82.8308163,67.3245185 82.6476221,66.7229712 C82.5033183,66.2491915 82.5301322,65.7238565 82.4654513,65.0611763" id="Fill-47" fill="#FEFDFC"></path>
            <path d="M89.7282723,61.1255446 C90.0895435,60.4693852 90.4766052,59.8329922 91.1221856,59.4058772 C91.606064,59.0859486 92.1331311,58.9687773 92.6597888,59.246728 C93.1399827,59.5002256 93.2343431,59.9943829 93.1993418,60.4797778 C93.1289297,61.457496 93.0188085,62.4323614 92.9178982,63.4078381 C92.8411408,64.1493796 92.6362499,64.937586 92.9309981,65.6196249 C93.2679116,66.3994765 92.9619057,66.6495098 92.3038394,66.794191 C91.5565299,66.9584346 90.9983505,66.765051 90.9029667,65.9187684 C90.7842486,64.8658568 91.0087895,63.8282284 91.101717,62.7846904 C91.1569823,62.1645995 91.1858431,61.5422669 91.0771547,60.8857 C89.8359372,62.526506 88.8292902,64.2963023 88.8532385,66.3522004 C88.864701,67.3425527 88.2666077,67.1041346 87.8699258,67.1952225 C87.3094948,67.3238053 86.8284821,67.08824 86.8831333,66.3939745 C86.9465861,65.5855943 87.0743103,64.7825123 87.1621207,63.9757623 C87.2974183,62.7339502 87.5680135,61.4962135 87.3788834,60.2397295 C87.3244369,59.8776192 87.4777469,59.7506666 87.771881,59.6620239 C88.2983341,59.5036898 88.8217168,59.3376122 89.3205372,59.7343645 C89.6513102,60.1765588 89.2366159,60.7412227 89.5628858,61.1823982 C89.5733248,61.1964587 89.6232682,61.1909568 89.6498774,61.1813793 C89.6789429,61.1707829 89.7024818,61.1449033 89.7282723,61.1255446" id="Fill-49" fill="#FEFDFC"></path>
            <path d="M56.8545341,61.8781512 C56.8056141,64.4681468 54.9728533,66.7812104 52.8076822,67.1365961 C51.0424679,67.4261621 49.5898096,66.1827197 49.7070948,64.4009006 C49.8350237,62.4546341 50.7348245,60.8926895 52.3884847,59.8344797 C53.4313612,59.1671127 54.5816979,59.0796927 55.690074,59.6993761 C56.5833248,60.1988316 56.8895354,61.0447066 56.8545341,61.8781512" id="Fill-51" fill="#FEFDFC"></path>
            <path d="M48.9265033,59.5650672 C48.5922506,58.816801 48.3791722,58.037357 47.4300421,58.0090321 C46.4661745,57.9800959 45.9716525,58.6387006 45.5477473,59.3551777 C44.774852,60.6613832 44.3327297,62.0764051 44.2913831,63.5945378 C44.252288,65.0319751 44.9588649,65.5823746 46.3613751,65.2035547 C46.879436,65.0635604 47.3655659,64.8063949 47.8987736,64.5893732 C48.1577017,65.190513 47.8954986,65.5903219 47.4130531,65.8493215 C46.342544,66.4237666 45.1987572,66.7275969 43.9763709,66.5209678 C42.5754982,66.2841799 41.8134513,65.3625001 41.9241865,63.94218 C42.1022636,61.6564224 42.9977659,59.6930387 44.7543834,58.1586039 C45.8228456,57.2253089 47.0704083,56.8845951 48.4542921,57.1130282 C49.0720352,57.2151201 49.8353102,57.2560791 50.0238263,58.0230927 C50.2184829,58.8139481 49.5321699,59.1198162 48.9265033,59.5650672" id="Fill-53" fill="#FEFCFB"></path>
            <path d="M98.0166737,63.6288537 C98.6673713,61.8117813 99.6817964,60.3875895 99.4281901,58.60251 C99.3712873,58.2018859 99.5303285,58.1046847 99.8541422,58.1254699 C100.428287,58.1623534 101.081441,58.1220057 101.165362,58.9226424 C101.192176,59.1798079 101.110302,59.4655022 101.016146,59.715128 C100.043272,62.2926932 98.8894559,64.7805968 97.1987474,66.9819911 C96.7418877,67.5768138 96.2160487,68.1235454 95.3620977,68.1223227 C94.8524289,68.1217114 94.5595228,67.8910367 94.6577723,67.3773169 C94.728389,67.0082782 94.6160163,66.5076001 95.3692617,66.5693443 C96.3396792,66.648817 96.9723644,65.814761 96.7040207,64.9077532 C96.2142065,63.2512564 95.703719,61.5963899 94.8970505,60.0576758 C94.6506082,59.5873603 94.3554507,59.1873477 95.0790166,58.8735323 C95.6916425,58.6078081 96.275203,58.2905286 96.773,59.0597837 C97.0593561,59.5023857 97.114212,60.0124375 97.2452112,60.4978324 C97.5006596,61.4443728 97.717013,62.4015097 98.0166737,63.6288537" id="Fill-55" fill="#FEFCFC"></path>
            <path d="M89.9500015,61.1255446 C89.831187,61.2985506 89.7123724,61.4713528 89.5935579,61.6443588 L89.3208532,61.6374304 C89.3208532,61.0030751 89.3208532,60.3687198 89.3205372,59.7343645 C90.153819,60.080784 89.2639739,60.7514115 89.9500015,61.1255446" id="Fill-57" fill="#EB7164"></path>
            <path d="M61.4016504,61.5491749 C61.3101588,61.7780156 61.0485424,62.0926461 60.8667957,61.9292176 C60.5965246,61.6867239 60.9748546,61.3720934 61.1365721,61.1024975 C61.2250964,61.2512541 61.3133734,61.4002145 61.4016504,61.5491749" id="Fill-59" fill="#E74D3E"></path>
            <path d="M64.9691359,62.316535 C64.9139244,62.4846504 64.6883457,62.7242912 64.5369083,62.6370749 C64.1867093,62.4351327 64.351082,62.1649255 64.6552188,61.9521831 C64.759963,62.0736338 64.8643917,62.1950844 64.9691359,62.316535" id="Fill-61" fill="#F1A298"></path>
            <path d="M34.7031011,40.1871121 C34.7031011,36.9943466 34.6928668,33.8896124 34.7102651,30.7850819 C34.7147682,29.9809811 34.3616844,28.9400922 34.8574345,28.4357461 C35.3552315,27.9291585 36.4038392,28.3008463 37.2098937,28.2827102 C38.4994171,28.253774 39.7838233,28.2552004 41.0250407,28.7332594 C44.068316,29.9049725 44.9787604,33.2581099 42.9208448,35.7863612 C42.4668507,36.3440967 41.9311868,36.8121706 41.3425091,37.2189079 C39.3445666,38.5996955 37.0864678,39.396868 34.7031011,40.1871121" id="Fill-63" fill="#FEFEFE"></path>
            <path d="M106.575015,35.2110806 C107.414434,37.2360048 108.162153,39.0398317 108.943645,40.924354 L104.296039,40.924354 C105.04212,39.0538922 105.772645,37.2225555 106.575015,35.2110806" id="Fill-65" fill="#FBFBFA"></path>
            <path d="M83.8058392,18.7247709 C83.7540536,20.0517615 82.7234583,21.0421139 81.4237006,21.0056379 C81.2118503,20.9995246 80.8687962,21.0967259 80.9836252,20.6840791 C81.2464423,19.7395764 81.4640238,18.768379 82.1515649,18.0087013 C82.4614599,17.6663573 82.8477029,17.3981879 83.3213469,17.5913677 C83.8142314,17.792291 83.8058392,18.2768708 83.8058392,18.7247709" id="Fill-67" fill="#F8F8F7"></path>
            <path d="M74.9965113,62.6857571 C74.8540497,63.727461 74.6966459,64.7665159 74.2123583,65.7179469 C73.9260022,66.2803693 73.5391452,66.690367 72.836662,66.3415021 C72.1663145,66.0087356 71.9855765,65.5673563 72.4442784,64.8824645 C72.9903813,64.0669522 73.4441708,63.1909183 73.9628457,62.356251 C74.1319166,62.0842097 74.3046718,61.638755 74.6935756,61.7816021 C75.024758,61.9034602 74.9873004,62.3474886 74.9965113,62.6857571" id="Fill-69" fill="#E23126"></path>
            <path d="M81.6982258,60.9713675 C82.4928179,60.9505824 83.0409677,61.6731728 82.7716005,62.2965242 C82.3145361,63.3549377 81.8075283,64.3903246 81.1760712,65.3584654 C81.0178487,65.600959 80.8782527,65.9803903 80.5032675,65.8540491 C80.1659445,65.7405457 80.1864132,65.3547974 80.18846,65.0642125 C80.1968521,63.9018731 80.4130008,62.7762133 80.9011776,61.7145393 C81.0743421,61.3377571 81.313211,61.0070284 81.6982258,60.9713675" id="Fill-71" fill="#E23227"></path>
            <path d="M51.8554612,64.6812355 C51.9217796,63.4428876 52.2494823,62.2805481 52.8946533,61.2184666 C53.1683189,60.7679174 53.5308182,60.3650518 54.1285021,60.5225708 C54.7638482,60.6900749 54.7837028,61.2563689 54.7429702,61.7645868 C54.6449255,62.9896893 54.3532476,64.1709799 53.7164686,65.2393785 C53.4325688,65.7158073 53.0782569,66.185919 52.4236703,65.9674709 C51.8083834,65.7620645 51.8665143,65.1900647 51.8554612,64.6812355" id="Fill-73" fill="#E23026"></path>
        </g>
    </g>
</svg>